<?xml version="1.0" standalone="no"?>
<!DOCTYPE svg PUBLIC "-//W3C//DTD SVG 20010904//EN"
 "http://www.w3.org/TR/2001/REC-SVG-20010904/DTD/svg10.dtd">
<svg version="1.0" xmlns="http://www.w3.org/2000/svg"
 width="749.000000pt" height="749.000000pt" viewBox="0 0 749.000000 749.000000"
 preserveAspectRatio="xMidYMid meet">
<metadata>
Created by potrace 1.14, written by Peter Selinger 2001-2017
</metadata>
<g transform="translate(0.000000,749.000000) scale(0.100000,-0.100000)"
fill="#000000" stroke="none">
<path d="M1805 7475 c-266 -58 -476 -262 -545 -529 -17 -68 -18 -200 -19
-3191 0 -2106 3 -3138 10 -3175 49 -262 259 -486 521 -557 85 -24 270 -23 356
0 252 68 446 263 514 516 20 76 20 90 22 2801 l1 2725 1465 1 c1526 1 1521 1
1646 44 63 22 181 93 231 139 92 86 177 228 210 351 12 46 17 102 17 190 -1
105 -5 137 -26 202 -38 116 -92 204 -177 289 -84 84 -171 137 -289 178 l-77
26 -1900 2 c-1544 1 -1911 -1 -1960 -12z"/>
<path d="M3980 4273 c-226 -35 -428 -181 -530 -383 -56 -110 -75 -193 -74
-325 0 -132 13 -195 65 -302 69 -144 188 -262 335 -334 87 -43 92 -44 204 -62
80 -13 79 -13 183 -3 264 25 512 227 595 483 104 319 -35 675 -329 840 -131
74 -309 108 -449 86z"/>
</g>
</svg>
